<?xml version="1.0" standalone="no"?>
<svg viewBox="0 0 200 200" xmlns="http://www.w3.org/2000/svg">
  <path fill="#FFFFFF" d="M37.3,-70.6C42.4,-61.6,36.7,-39.7,36,-25.8C35.2,-11.9,39.5,-6,37.7,-1.1C35.8,3.8,27.9,7.7,26.9,18.7C26,29.7,32.1,47.9,28.8,50.3C25.4,52.7,12.7,39.2,-0.1,39.4C-13,39.7,-25.9,53.5,-33.7,53.7C-41.5,53.9,-44.1,40.4,-46.9,29.2C-49.7,18,-52.7,9,-53.9,-0.7C-55.1,-10.4,-54.6,-20.8,-48,-25.5C-41.5,-30.2,-28.9,-29.2,-19.8,-36C-10.8,-42.8,-5.4,-57.5,5.3,-66.7C16.1,-75.9,32.1,-79.7,37.3,-70.6Z" transform="translate(100 100)" />
</svg>
